<?xml version="1.0" encoding="UTF-8"?>
<svg width="154px" height="108px" viewBox="0 0 154 108" version="1.1" xmlns="http://www.w3.org/2000/svg" xmlns:xlink="http://www.w3.org/1999/xlink">
    <!-- Generator: Sketch 47 (45396) - http://www.bohemiancoding.com/sketch -->
    <title>Group 3</title>
    <desc>Created with Sketch.</desc>
    <defs></defs>
    <g id="Welcome" stroke="none" stroke-width="1" fill="none" fill-rule="evenodd">
        <g id="Roadmap" transform="translate(-1009.000000, -275.000000)">
            <g id="Group-3" transform="translate(1005.000000, 263.000000)">
                <g id="Notification-ICON-Copy" transform="translate(34.000000, 28.000000)">
                    <circle id="Oval" fill="#33415D" cx="38" cy="38" r="38"></circle>
                    <g id="alarm" transform="translate(17.000000, 20.000000)" fill-rule="nonzero" fill="#36BEDF">
                        <path d="M31.7850717,19.5087362 L31.7850717,13.4583371 C31.813864,8.84553008 28.7263838,5.78602207 26.0734675,4.56773513 C25.3134826,4.21859603 24.5300621,3.94951001 23.7339194,3.74971364 L23.7339194,3.36357521 C23.7339194,1.50889984 22.2320287,0 20.3859685,0 C18.5399084,0 17.0380177,1.50889984 17.0380177,3.36357521 L17.0380177,3.80823985 C16.3208866,4.0026545 15.6158081,4.25626807 14.931487,4.57378957 C12.0000212,5.93132852 9.02971918,9.20341448 9.00293558,13.4543008 L9.00293558,19.5087362 C9.00293558,23.8060399 7.49234014,27.493191 4.51333346,30.4679369 C4.33589206,30.6455337 4.2716114,30.9072199 4.3466055,31.1473791 C4.4215996,31.3875384 4.62448543,31.5651352 4.8715642,31.6081889 L11.2266445,32.7107689 C12.41048,32.915947 13.5005728,33.0841257 14.537768,33.222705 C15.7062028,35.5233905 18.0008883,37 20.507834,37 C23.0154492,37 25.3108043,35.5227178 26.4785695,33.2206869 C27.5117472,33.0827803 28.5964833,32.9152743 29.7736228,32.7107689 L36.1280335,31.6081889 C36.3751123,31.5658079 36.5773285,31.3875384 36.6529922,31.1473791 C36.7286559,30.9078926 36.6643753,30.6455337 36.4862643,30.4679369 C33.3673133,27.3525936 31.7850717,23.6654424 31.7850717,19.5087362 Z M18.377198,3.36357521 C18.377198,2.25090453 19.2784664,1.34543008 20.3859685,1.34543008 C21.4934707,1.34543008 22.3947391,2.25090453 22.3947391,3.36357521 L22.3947391,3.48600935 C21.0602458,3.29361284 19.7063345,3.30168542 18.377198,3.51762695 L18.377198,3.36357521 Z M20.5085035,35.6538972 C18.8131012,35.6538972 17.2288509,34.8076217 16.2117434,33.4238468 C17.7082774,33.5785713 19.1050425,33.6566062 20.5011381,33.6566062 C21.9025903,33.6566062 23.3040425,33.5785713 24.8066029,33.4218287 C23.7888258,34.806949 22.2039059,35.6538972 20.5085035,35.6538972 Z M29.5466317,31.3841748 C28.2616882,31.6068435 27.0838791,31.7878039 25.9710202,31.9304194 C25.969681,31.9304194 25.9683418,31.9304194 25.9663331,31.9304194 C25.4755235,31.9929819 24.9987753,32.0474719 24.5320709,32.0945619 C24.5280534,32.0945619 24.5247054,32.0952346 24.5206879,32.0952346 C24.0928197,32.1382884 23.6749955,32.1732696 23.2611887,32.202869 C23.1835163,32.2082508 23.1058438,32.2136325 23.028841,32.2183415 C22.6706102,32.2418865 22.316397,32.2607225 21.9641926,32.2741768 C21.8925464,32.2768677 21.8202307,32.280904 21.7485845,32.2829221 C20.9156144,32.3111762 20.0940272,32.3111762 19.2617266,32.2835948 C19.1874021,32.280904 19.112408,32.2768677 19.0380835,32.2741768 C18.6919054,32.2600498 18.3430489,32.2425592 17.9901749,32.2190142 C17.9064761,32.2136325 17.8227774,32.2082508 17.738409,32.2021963 C17.3373245,32.1732696 16.9315528,32.1396338 16.5170765,32.0979255 C16.5016759,32.0965801 16.486945,32.0952346 16.4715444,32.0938892 C16.008188,32.0474719 15.5354573,31.9929819 15.0493349,31.9310922 C15.0473261,31.9310922 15.0453173,31.9310922 15.0433085,31.9310922 C13.9264321,31.7891493 12.7439359,31.6068435 11.4536356,31.3835021 L6.32457488,30.4941728 C8.99155254,27.4306285 10.3421159,23.7414592 10.3421159,19.5087362 L10.3421159,13.4583371 C10.364882,9.80213087 12.9454825,6.97538227 15.491934,5.79544008 C16.2492404,5.44495555 17.0346697,5.1832694 17.8334908,4.99961819 C17.8401867,4.99827276 17.8475522,4.99894547 17.8542481,4.99760004 C19.5047879,4.62491591 21.2604533,4.60809803 22.9297416,4.95185542 C22.9384463,4.95387357 22.947151,4.94983728 22.9558556,4.95118271 C23.8290012,5.1341612 24.688755,5.41131979 25.517038,5.79140379 C27.9871562,6.92627407 30.469327,9.73418665 30.4458913,13.4549735 L30.4458913,19.5094089 C30.4458913,23.5678988 31.9022499,27.3418301 34.6730141,30.4955183 L29.5466317,31.3841748 Z" id="Shape"></path>
                        <path d="M25.4968915,9.75839844 C22.8564309,8.35557173 19.6231444,8.35398751 17.0004005,9.75998266 C15.5047074,10.5615979 12.967821,12.9070355 12.9473787,16.6149021 C12.9453345,17.0521468 13.2478802,17.4085963 13.6246994,17.4117647 C13.6260623,17.4117647 13.6274251,17.4117647 13.6287879,17.4117647 C14.0028815,17.4117647 14.3081528,17.06086 14.3101971,16.6244074 C14.3258695,13.7118192 16.3673714,11.8440239 17.57074,11.1984543 C19.8398325,9.98098133 22.6445127,9.98414977 24.9292777,11.1984543 C25.2720265,11.3806396 25.6761021,11.2055833 25.8328262,10.8079441 C25.9895503,10.4095128 25.8382775,9.93979162 25.4968915,9.75839844 Z" id="Shape"></path>
                        <path d="M4.06740024,13.2469175 C3.73621459,12.9961255 3.2008966,12.9961255 2.86971095,13.2469175 C1.01896761,14.6484023 0,16.5136278 0,18.5000802 C0,20.4865325 1.01896761,22.3523994 2.86971095,23.7532428 C3.03488027,23.8783181 3.25171793,23.9411765 3.46855559,23.9411765 C3.68539326,23.9411765 3.90223092,23.8783181 4.06740024,23.7532428 C4.39858589,23.5024508 4.39858589,23.0970785 4.06740024,22.8462865 C2.53683126,21.6872554 1.69404425,20.1440186 1.69404425,18.5000802 C1.69404425,16.8561417 2.53683126,15.3122635 4.06740024,14.1538738 C4.39773886,13.9030818 4.39773886,13.4977096 4.06740024,13.2469175 Z" id="Shape"></path>
                        <path d="M5.960992,23.9411765 C6.0922084,23.9411765 6.2234248,23.8739456 6.3233748,23.7401699 C6.52378735,23.4719325 6.52378735,23.038362 6.3233748,22.7701246 C5.0122359,21.0152618 5.0122359,18.1606942 6.3233748,16.4065175 C6.52378735,16.1382801 6.52378735,15.7047096 6.3233748,15.4364722 C6.12296225,15.1682348 5.79902175,15.1682348 5.5986092,15.4364722 C3.8881829,17.7257517 3.8881829,21.4515764 5.5986092,23.7401699 C5.69855919,23.8746316 5.8297756,23.9411765 5.960992,23.9411765 Z" id="Shape"></path>
                        <path d="M38.130289,13.2469175 C37.7991034,12.9961255 37.2637854,12.9961255 36.9325998,13.2469175 C36.6014141,13.4977096 36.6014141,13.9030818 36.9325998,14.1538738 C38.4631687,15.3129049 39.3059558,16.8561417 39.3059558,18.5000802 C39.3059558,20.1440186 38.4631687,21.6872554 36.9325998,22.8462865 C36.6014141,23.0970785 36.6014141,23.5024508 36.9325998,23.7532428 C37.0977691,23.8783181 37.3146067,23.9411765 37.5314444,23.9411765 C37.7482821,23.9411765 37.9651197,23.8783181 38.130289,23.7532428 C39.9810324,22.3523994 41,20.4865325 41,18.5000802 C41,16.5136278 39.9810324,14.6484023 38.130289,13.2469175 Z" id="Shape"></path>
                        <path d="M34.6766252,15.4364722 C34.4762127,15.7047096 34.4762127,16.1382801 34.6766252,16.4065175 C35.9877641,18.1613803 35.9877641,21.0159479 34.6766252,22.7701246 C34.4762127,23.038362 34.4762127,23.4719325 34.6766252,23.7401699 C34.7765752,23.8739456 34.9077916,23.9411765 35.039008,23.9411765 C35.1702244,23.9411765 35.3014408,23.8739456 35.4013908,23.7401699 C37.1118171,21.4508904 37.1118171,17.7250657 35.4013908,15.4364722 C35.2009782,15.1682348 34.8765252,15.1682348 34.6766252,15.4364722 Z" id="Shape"></path>
                    </g>
                </g>
                <text id="+" transform="translate(117.867756, 113.725574) rotate(-106.000000) translate(-117.867756, -113.725574) " font-family="Muli-ExtraBold, Muli" font-size="23" font-weight="600" fill="#A4A4A4">
                    <tspan x="110.867756" y="122.225574">+</tspan>
                </text>
                <text id="+" transform="translate(110.091549, 17.320165) rotate(-53.000000) translate(-110.091549, -17.320165) " font-family="Muli-ExtraBold, Muli" font-size="28" font-weight="600" fill="#36BEDF">
                    <tspan x="101.591549" y="27.8201647">+</tspan>
                </text>
                <text id="+" transform="translate(12.481147, 96.036511) rotate(14.000000) translate(-12.481147, -96.036511) " font-family="Muli-ExtraBold, Muli" font-size="28" font-weight="600" fill="#E3E3E3">
                    <tspan x="3.98114685" y="106.536511">+</tspan>
                </text>
                <g id="Group" opacity="0.0700000003" transform="translate(44.000000, 44.000000)" fill="#0055FF">
                    <rect id="Rectangle-3" transform="translate(19.500000, 23.000000) rotate(-35.000000) translate(-19.500000, -23.000000) " x="11" y="2" width="17" height="42" rx="8.5"></rect>
                    <rect id="Rectangle-3-Copy" transform="translate(50.500000, 23.000000) rotate(-35.000000) translate(-50.500000, -23.000000) " x="42" y="2" width="17" height="42" rx="8.5"></rect>
                    <rect id="Rectangle-3-Copy-2" transform="translate(81.500000, 23.000000) rotate(-35.000000) translate(-81.500000, -23.000000) " x="73" y="2" width="17" height="42" rx="8.5"></rect>
                    <rect id="Rectangle-3-Copy-3" transform="translate(65.500000, 23.000000) scale(-1, 1) rotate(-35.000000) translate(-65.500000, -23.000000) " x="57" y="2" width="17" height="42" rx="8.5"></rect>
                    <rect id="Rectangle-3-Copy-4" transform="translate(34.500000, 23.000000) scale(-1, 1) rotate(-35.000000) translate(-34.500000, -23.000000) " x="26" y="2" width="17" height="42" rx="8.5"></rect>
                    <rect id="Rectangle-3-Copy-5" transform="translate(96.500000, 23.000000) scale(-1, 1) rotate(-35.000000) translate(-96.500000, -23.000000) " x="88" y="2" width="17" height="42" rx="8.5"></rect>
                </g>
            </g>
        </g>
    </g>
</svg>